<svg width="380" height="380" viewBox="0 0 380 380" fill="none" xmlns="http://www.w3.org/2000/svg">
<path d="M176.886 174.964C176.428 173.504 175.549 171.834 175.229 170.321C173.976 164.393 171.296 159.014 169.505 153.325L161.495 127.986C161.036 126.582 161.041 125.022 160.566 123.622L153.96 103.896C153.429 102.352 151.796 99.5362 151.619 98.389C150.692 92.3927 150.595 82.7735 151.596 76.9457C153.544 67.4835 160.26 57.0487 168.141 51.4447C180.725 42.5425 196.575 41.262 210.839 46.6547C213.569 47.6867 220.555 52.354 222.858 54.3785C226.624 58.263 231.212 63.5545 233.289 68.553C235.944 74.9417 237.408 81.6905 240.039 88.1517C241.551 91.867 242.308 96.5482 243.693 100.383C244.683 103.125 245.56 105.832 246.613 108.55C248.043 112.75 249.028 117.4 250.593 121.529C252.623 124.998 253.538 132.372 255.118 135.419C256.895 138.855 259.24 149.079 260.69 151.078C262.528 145.941 264.29 140.777 265.98 135.59C267.57 130.567 268.658 126.359 271.045 121.524C272.208 119.169 272.733 114.782 273.853 112.247C274.878 108.779 276.403 105.412 277.493 102C279.295 96.3665 280.783 90.9772 283.415 85.6495C284.163 84.1377 284.473 81.0985 285.185 79.4522C287.135 74.5905 288.968 69.7252 290.853 64.8362C291.768 62.4617 295.21 58.894 296.735 56.7675C299.633 53.8562 308.273 49.289 311.87 47.586C320.198 43.6457 334.1 43.735 342.73 46.8947C354.69 51.274 362.705 59.8015 367.958 71.2365C371.853 80.0752 371.983 92.0105 368.963 101.124C368.228 103.34 366.61 106.436 366.158 108.489C364.445 116.235 361.268 123.304 358.705 130.773C357.943 132.991 357.743 135.551 356.97 137.787C356.108 140.506 354.138 143.26 353.313 145.64L316.785 253.075L304.225 289.547C302.04 295.835 300.5 302.852 297.333 308.647C289.058 323.782 272.423 332.308 255.338 330.973C253.26 330.81 251.02 330.578 248.962 330.505C248.829 328.72 247.115 328.887 245.279 328.375C238.138 326.388 231.216 321.12 226.082 315.862C223.922 312.397 221.359 308.563 219.696 304.878C218.074 301.288 217.055 297.137 215.893 293.347C215.377 291.63 215.392 290.152 214.884 288.362C212.989 286.95 213.818 289.067 212.987 285.627C212 281.542 210.52 277.45 209.58 273.33C209.546 273.18 208.629 272.837 208.55 272.247C208.38 270.985 208.993 269.122 208.197 268.09C207.955 268.052 206.765 267.867 206.715 267.615C206.138 264.67 205.241 261.797 204.424 258.91C204.007 257.437 203.648 254.935 202.985 253.632L202.003 253.317C201.573 252.705 201.33 250.497 201.142 249.656C198.338 237.125 192.257 225.493 190.139 212.765C190.098 212.515 189.11 212.472 188.857 212.435C188.402 211.975 188.44 211.451 188.445 210.646C188.462 208.001 186.581 204.702 185.789 202.141C185.416 200.936 185.78 199.909 185.258 198.496C182.645 196.226 185.504 193.616 182.575 192.894C182.118 192.336 182.063 191.566 182.017 190.846C181.872 188.554 177.974 177.447 176.886 174.964ZM197.032 106.943C208.305 105.309 216.155 94.8937 214.618 83.6065C213.082 72.3192 202.734 64.3802 191.434 65.8192C179.996 67.276 171.938 77.7785 173.493 89.204C175.048 100.63 185.62 108.596 197.032 106.943ZM259.873 308.19C271.19 307.823 280.093 298.395 279.813 287.077C279.535 275.757 270.178 266.782 258.858 266.972C247.411 267.165 238.313 276.647 238.595 288.092C238.877 299.537 248.431 308.56 259.873 308.19ZM328.875 108.138C340.088 107.571 348.768 98.102 348.358 86.8815C347.95 75.661 338.605 66.8492 327.38 67.0992C319.975 67.2642 313.233 71.403 309.735 77.9307C306.238 84.4585 306.525 92.364 310.49 98.62C314.453 104.876 321.478 108.513 328.875 108.138Z" fill="#1D88E6"/>
<path d="M176.886 174.964C176.428 173.504 175.549 171.834 175.229 170.321C173.976 164.393 171.296 159.014 169.505 153.325L161.495 127.986C161.036 126.582 161.041 125.022 160.566 123.622L153.96 103.896C153.429 102.352 151.796 99.5362 151.619 98.389C150.692 92.3927 150.595 82.7735 151.596 76.9457C153.544 67.4835 160.26 57.0487 168.141 51.4447C180.725 42.5425 196.575 41.262 210.839 46.6547C213.569 47.6867 220.555 52.354 222.858 54.3785C226.624 58.263 231.212 63.5545 233.289 68.553C235.944 74.9417 237.408 81.6905 240.039 88.1517C241.551 91.867 242.308 96.5482 243.693 100.383C244.683 103.125 245.56 105.832 246.613 108.55C248.043 112.75 249.028 117.4 250.593 121.529C252.623 124.998 253.538 132.372 255.118 135.419C256.895 138.855 259.24 149.079 260.69 151.078C259.4 156.428 256.8 162.245 254.965 167.481C254.26 169.489 253.45 173.218 252.645 174.928C249.701 181.167 248.235 187.716 246.043 194.232L230.817 238.118L222.294 262.537C220.276 268.172 218.783 270.902 217.421 277.007C215.99 283.42 216.701 287.27 215.893 293.347C215.377 291.63 215.392 290.152 214.884 288.362C212.989 286.95 213.818 289.067 212.987 285.627C212 281.542 210.52 277.45 209.58 273.33C209.546 273.18 208.629 272.837 208.55 272.247C208.38 270.985 208.993 269.122 208.197 268.09C207.955 268.052 206.765 267.867 206.715 267.615C206.138 264.67 205.241 261.797 204.424 258.91C204.007 257.437 203.648 254.935 202.985 253.632L202.003 253.317C201.573 252.705 201.33 250.497 201.142 249.656C198.338 237.125 192.257 225.493 190.139 212.765C190.098 212.515 189.11 212.472 188.857 212.435C188.402 211.975 188.44 211.451 188.445 210.646C188.462 208.001 186.581 204.702 185.789 202.141C185.416 200.936 185.78 199.909 185.258 198.496C182.645 196.226 185.504 193.616 182.575 192.894C182.118 192.336 182.063 191.566 182.017 190.846C181.872 188.554 177.974 177.447 176.886 174.964ZM197.032 106.943C208.305 105.309 216.155 94.8937 214.618 83.6065C213.082 72.3192 202.734 64.3802 191.434 65.8192C179.996 67.276 171.938 77.7785 173.493 89.204C175.048 100.63 185.62 108.596 197.032 106.943Z" fill="#4BAF4E"/>
<path d="M248.962 330.505C246.833 330.857 243.623 330.657 241.363 330.622C237.602 330.557 233.842 330.52 230.081 330.51L181.484 330.5L87.8446 330.482L59.9366 330.532C49.2613 330.542 40.8661 331.517 30.5908 327.132C-0.285412 313.952 -4.95163 272.275 21.8147 252.195C27.2106 248.147 36.2561 245.591 42.9649 244.405C45.9354 243.88 51.7118 244.243 55.0518 244.269L72.4963 244.26L114.293 244.346C115.839 244.351 125.995 244.809 126.221 244.693C134.08 249.524 141.618 255.7 149.216 260.972C150.481 261.85 151.912 263.307 153.223 264.26L208.119 303.405C212.214 306.342 221.819 314.612 226.082 315.862C231.216 321.12 238.138 326.387 245.279 328.375C247.115 328.887 248.829 328.72 248.962 330.505ZM49.3724 308.137C60.7719 307.332 69.3696 297.452 68.5926 286.052C67.8158 274.65 57.9579 266.027 46.5544 266.777C35.1114 267.527 26.4528 277.427 27.2323 288.87C28.0118 300.31 37.9331 308.945 49.3724 308.137Z" fill="#E43734"/>
<path d="M126.222 244.693C122.319 240.853 117.464 238.372 113.027 234.981C95.4139 221.519 76.8039 209.231 59.4527 195.454C55.4672 191.806 52.4969 187.991 49.9364 183.277C42.1322 169.007 44.2339 150.188 53.0334 136.859C53.5562 136.067 58.5742 130.562 59.2512 130.263C61.4967 129.271 63.2509 127.353 65.2502 126.293C79.4042 118.792 95.1307 117.804 109.295 125.926C111.48 127.961 116.228 130.004 118.208 131.841C121.401 134.804 123.713 136.262 127.405 138.624C130.114 140.356 132.963 142.626 135.736 144.464C139.372 146.876 141.753 150.418 146.354 151.764L146.68 151.858C148.599 154.915 155.778 159.141 158.789 161.451C162.542 164.33 166.43 167.062 170.336 169.734C172.604 171.286 174.693 173.384 176.886 174.965C177.974 177.447 181.872 188.554 182.017 190.846C182.063 191.566 182.118 192.336 182.575 192.894C185.504 193.617 182.645 196.226 185.258 198.496C185.78 199.91 185.416 200.936 185.789 202.142C186.581 204.703 188.462 208.002 188.445 210.646C188.44 211.451 188.402 211.975 188.857 212.435C189.11 212.472 190.098 212.515 190.139 212.766C192.257 225.493 198.338 237.125 201.142 249.656C201.33 250.498 201.573 252.705 202.003 253.318L202.985 253.633C203.648 254.935 204.007 257.438 204.424 258.91C205.241 261.798 206.138 264.67 206.715 267.615C206.765 267.867 207.955 268.052 208.197 268.09C208.993 269.122 208.38 270.985 208.55 272.247C208.629 272.837 209.546 273.18 209.58 273.33C210.52 277.45 212 281.543 212.987 285.628C213.818 289.068 212.989 286.95 214.884 288.362C215.392 290.152 215.377 291.63 215.893 293.348C217.055 297.138 218.074 301.288 219.696 304.878C221.359 308.563 223.922 312.397 226.082 315.862C221.819 314.612 212.215 306.342 208.12 303.405L153.223 264.26C151.912 263.308 150.481 261.85 149.216 260.973C141.619 255.7 134.08 249.524 126.222 244.693ZM91.3179 183.683C102.698 181.806 110.378 171.028 108.438 159.659C106.497 148.289 95.6764 140.67 84.3182 142.674C73.0494 144.662 65.5027 155.379 67.4279 166.659C69.3532 177.938 80.0277 185.545 91.3179 183.683Z" fill="#FCC02D"/>
</svg>
